<svg width="18" height="22" viewBox="0 0 18 22" fill="none" xmlns="http://www.w3.org/2000/svg">
<path id="Combined-Shape" d="M7.41698 11.1601L7.19075 10.7142L7.19008 10.7146L7.41698 11.1601ZM11.045 11.1601L11.2719 10.7146L11.2716 10.7144L11.045 11.1601ZM15.04 13.1952L14.813 13.6407L14.8131 13.6407L15.04 13.1952ZM3.42088 13.1952L3.19398 12.7496L3.19362 12.7498L3.42088 13.1952ZM13.282 5.83403C13.282 8.29096 11.4351 10.2242 9.23095 10.2242V11.2242C12.0542 11.2242 14.282 8.77398 14.282 5.83403H13.282ZM9.23095 10.2242C7.02795 10.2242 5.18103 8.29104 5.18103 5.83403H4.18103C4.18103 8.7739 6.4087 11.2242 9.23095 11.2242V10.2242ZM5.18103 5.83403C5.18103 3.37482 7.0278 1.44385 9.23095 1.44385V0.443848C6.40885 0.443848 4.18103 2.89165 4.18103 5.83403H5.18103ZM9.23095 1.44385C11.4353 1.44385 13.282 3.37491 13.282 5.83403H14.282C14.282 2.89157 12.0541 0.443848 9.23095 0.443848V1.44385ZM7.64321 11.606C8.65079 11.0948 9.81349 11.095 10.8184 11.6059L11.2716 10.7144C9.98161 10.0587 8.48245 10.0589 7.19075 10.7142L7.64321 11.606ZM10.818 11.6057L14.813 13.6407L15.2669 12.7496L11.2719 10.7146L10.818 11.6057ZM14.8131 13.6407C16.1149 14.3035 16.9642 15.7238 16.9642 17.3076H17.9642C17.9642 15.3752 16.9276 13.5951 15.2668 12.7496L14.8131 13.6407ZM16.9642 17.3076V19.3108H17.9642V17.3076H16.9642ZM16.9642 19.3108C16.9642 20.2282 16.2797 20.9107 15.5076 20.9107V21.9107C16.8976 21.9107 17.9642 20.7125 17.9642 19.3108H16.9642ZM15.5076 20.9107H2.9566V21.9107H15.5076V20.9107ZM2.9566 20.9107C2.18328 20.9107 1.5 20.2269 1.5 19.3085H0.5C0.5 20.709 1.56329 21.9107 2.9566 21.9107V20.9107ZM1.5 19.3085V17.3076H0.5V19.3085H1.5ZM1.5 17.3076C1.5 15.7226 2.34939 14.3032 3.64813 13.6405L3.19362 12.7498C1.53646 13.5954 0.5 15.3741 0.5 17.3076H1.5ZM3.64777 13.6407L7.64388 11.6057L7.19008 10.7146L3.19398 12.7496L3.64777 13.6407Z" fill="white"/>
</svg>
