<svg width="50" height="50" viewBox="0 0 50 50" fill="none" xmlns="http://www.w3.org/2000/svg">
<rect width="50" height="50" fill="black"/>
<rect width="50" height="50" fill="white" fill-opacity="0.1"/>
<path d="M30.34 18.46C30.1027 18.46 29.8707 18.5304 29.6733 18.6622C29.476 18.7941 29.3222 18.9815 29.2313 19.2008C29.1405 19.4201 29.1168 19.6613 29.1631 19.8941C29.2094 20.1269 29.3236 20.3407 29.4915 20.5085C29.6593 20.6764 29.8731 20.7906 30.1059 20.8369C30.3387 20.8832 30.5799 20.8595 30.7992 20.7687C31.0185 20.6778 31.2059 20.524 31.3378 20.3267C31.4696 20.1293 31.54 19.8973 31.54 19.66C31.54 19.3417 31.4136 19.0365 31.1885 18.8115C30.9635 18.5864 30.6583 18.46 30.34 18.46ZM34.94 20.88C34.9206 20.0503 34.7652 19.2294 34.48 18.45C34.2257 17.7831 33.83 17.1793 33.32 16.68C32.8248 16.1674 32.2196 15.7742 31.55 15.53C30.7727 15.2362 29.9508 15.0772 29.12 15.06C28.06 15 27.72 15 25 15C22.28 15 21.94 15 20.88 15.06C20.0492 15.0772 19.2273 15.2362 18.45 15.53C17.7817 15.7766 17.1769 16.1696 16.68 16.68C16.1674 17.1752 15.7742 17.7804 15.53 18.45C15.2362 19.2273 15.0772 20.0492 15.06 20.88C15 21.94 15 22.28 15 25C15 27.72 15 28.06 15.06 29.12C15.0772 29.9508 15.2362 30.7727 15.53 31.55C15.7742 32.2196 16.1674 32.8248 16.68 33.32C17.1769 33.8304 17.7817 34.2234 18.45 34.47C19.2273 34.7638 20.0492 34.9228 20.88 34.94C21.94 35 22.28 35 25 35C27.72 35 28.06 35 29.12 34.94C29.9508 34.9228 30.7727 34.7638 31.55 34.47C32.2196 34.2258 32.8248 33.8326 33.32 33.32C33.8322 32.8226 34.2283 32.2182 34.48 31.55C34.7652 30.7706 34.9206 29.9497 34.94 29.12C34.94 28.06 35 27.72 35 25C35 22.28 35 21.94 34.94 20.88ZM33.14 29C33.1327 29.6348 33.0178 30.2637 32.8 30.86C32.6403 31.2952 32.3839 31.6884 32.05 32.01C31.7256 32.3405 31.3332 32.5964 30.9 32.76C30.3037 32.9778 29.6748 33.0927 29.04 33.1C28.04 33.15 27.67 33.16 25.04 33.16C22.41 33.16 22.04 33.16 21.04 33.1C20.3809 33.1123 19.7246 33.0109 19.1 32.8C18.6858 32.6281 18.3114 32.3728 18 32.05C17.6681 31.7287 17.4148 31.3352 17.26 30.9C17.0159 30.2952 16.8804 29.6519 16.86 29C16.86 28 16.8 27.63 16.8 25C16.8 22.37 16.8 22 16.86 21C16.8645 20.3511 16.983 19.7079 17.21 19.1C17.386 18.6779 17.6563 18.3017 18 18C18.3038 17.6562 18.6793 17.3831 19.1 17.2C19.7096 16.98 20.352 16.8651 21 16.86C22 16.86 22.37 16.8 25 16.8C27.63 16.8 28 16.8 29 16.86C29.6348 16.8673 30.2637 16.9822 30.86 17.2C31.3144 17.3687 31.7223 17.6428 32.05 18C32.3777 18.3072 32.6338 18.6827 32.8 19.1C33.0223 19.7089 33.1373 20.3518 33.14 21C33.19 22 33.2 22.37 33.2 25C33.2 27.63 33.19 28 33.14 29ZM25 19.87C23.9858 19.872 22.995 20.1745 22.1527 20.7394C21.3103 21.3043 20.6544 22.1062 20.2676 23.0438C19.8809 23.9813 19.7807 25.0125 19.9798 26.0069C20.1789 27.0014 20.6682 27.9145 21.3861 28.631C22.1039 29.3474 23.018 29.835 24.0129 30.0321C25.0077 30.2293 26.0387 30.1271 26.9755 29.7385C27.9123 29.35 28.7129 28.6924 29.2761 27.849C29.8394 27.0056 30.14 26.0142 30.14 25C30.1413 24.3251 30.0092 23.6566 29.7512 23.033C29.4933 22.4093 29.1146 21.8428 28.6369 21.3661C28.1592 20.8893 27.5919 20.5117 26.9678 20.2549C26.3436 19.9982 25.6749 19.8674 25 19.87ZM25 28.33C24.3414 28.33 23.6976 28.1347 23.15 27.7688C22.6023 27.4029 22.1755 26.8828 21.9235 26.2743C21.6714 25.6659 21.6055 24.9963 21.734 24.3503C21.8625 23.7044 22.1796 23.111 22.6453 22.6453C23.111 22.1796 23.7044 21.8625 24.3503 21.734C24.9963 21.6055 25.6659 21.6714 26.2743 21.9235C26.8828 22.1755 27.4029 22.6023 27.7688 23.15C28.1347 23.6976 28.33 24.3414 28.33 25C28.33 25.4373 28.2439 25.8703 28.0765 26.2743C27.9092 26.6784 27.6639 27.0454 27.3547 27.3547C27.0454 27.6639 26.6784 27.9092 26.2743 28.0765C25.8703 28.2439 25.4373 28.33 25 28.33Z" fill="white"/>
</svg>
