<svg width="50" height="50" viewBox="0 0 50 50" fill="none" xmlns="http://www.w3.org/2000/svg">
<rect width="50" height="50" fill="black"/>
<rect width="50" height="50" fill="white" fill-opacity="0.1"/>
<path d="M32.5 17H17.5C16.8372 17.0007 16.2017 17.2691 15.733 17.7463C15.2643 18.2236 15.0007 18.8706 15 19.5455V30.4545C15.0007 31.1294 15.2643 31.7764 15.733 32.2537C16.2017 32.7309 16.8372 32.9993 17.5 33H32.5C33.1628 32.9993 33.7983 32.7309 34.267 32.2537C34.7357 31.7764 34.9993 31.1294 35 30.4545V19.5455C34.9993 18.8706 34.7357 18.2236 34.267 17.7463C33.7983 17.2691 33.1628 17.0007 32.5 17ZM31.867 21.2105L25.4384 26.3014C25.313 26.4006 25.1588 26.4545 25 26.4545C24.8412 26.4545 24.687 26.4006 24.5616 26.3014L18.133 21.2105C18.0575 21.1524 17.9941 21.0796 17.9464 20.9963C17.8987 20.9131 17.8678 20.821 17.8554 20.7255C17.843 20.6299 17.8493 20.5329 17.8741 20.4398C17.8988 20.3468 17.9415 20.2598 17.9996 20.1837C18.0577 20.1076 18.1301 20.044 18.2125 19.9967C18.2949 19.9493 18.3858 19.9191 18.4798 19.9078C18.5738 19.8965 18.669 19.9044 18.76 19.9309C18.851 19.9574 18.9359 20.0021 19.0098 20.0623L25 24.8059L30.9902 20.0623C31.14 19.9471 31.3283 19.8966 31.5143 19.9217C31.7004 19.9467 31.8693 20.0454 31.9845 20.1962C32.0997 20.3471 32.152 20.5381 32.13 20.7279C32.108 20.9177 32.0135 21.091 31.867 21.2105Z" fill="white"/>
</svg>
