<svg width="19" height="16" viewBox="0 0 19 16" fill="none" xmlns="http://www.w3.org/2000/svg">
<g id="Group 2">
<path id="Vector" fill-rule="evenodd" clip-rule="evenodd" d="M17.0967 0.578992L0.381873 6.80423C0.265496 6.84741 0.166283 6.92347 0.097954 7.0219C0.0296255 7.12033 -0.00444161 7.23626 0.000464357 7.35366C0.00537032 7.47106 0.0490069 7.58413 0.125339 7.67722C0.201671 7.77032 0.306927 7.83885 0.426549 7.87333L4.63936 9.09775L6.34791 14.0623C6.37907 14.153 6.43408 14.2349 6.50786 14.3003C6.58163 14.3658 6.6718 14.4127 6.77001 14.4368C6.86822 14.4608 6.97131 14.4613 7.06975 14.438C7.16819 14.4148 7.25879 14.3686 7.33319 14.3038L9.80848 12.1452L14.5043 15.3899C14.5847 15.4454 14.6786 15.4813 14.7775 15.4944C14.8764 15.5075 14.9772 15.4974 15.0709 15.4649C15.1646 15.4325 15.2482 15.3787 15.3143 15.3084C15.3805 15.2381 15.427 15.1535 15.4497 15.0622L18.7183 1.89184C18.7685 1.69016 18.7589 1.47942 18.6906 1.28249C18.6223 1.08556 18.4978 0.909973 18.3306 0.774789C18.1635 0.639604 17.9601 0.549989 17.7426 0.515671C17.5251 0.481353 17.3017 0.503645 17.0967 0.580126V0.578992ZM7.31146 10.1306L6.78984 13.0669L5.58238 8.95603L17.3792 1.72858L7.31146 10.1294V10.1306Z" fill="white"/>
</g>
</svg>
