<svg width="94" height="94" viewBox="0 0 94 94" fill="none" xmlns="http://www.w3.org/2000/svg">
<g id="Group 36160">
<path id="Vector" d="M47.54 0.333252H56.1726C56.2146 0.358164 56.2566 0.404089 56.2987 0.404868C57.0873 0.409539 57.8751 0.408765 58.6637 0.409543C63.769 0.481165 68.8618 0.679682 73.9219 1.49944C76.6831 1.94785 79.3883 2.60724 81.9503 3.76175C84.3286 4.83374 86.4507 6.25295 88.0536 8.36034C89.6565 10.4677 90.6708 12.8359 91.401 15.3474C92.6466 19.6244 93.0709 24.026 93.3472 28.4479C93.5138 31.1392 93.5691 33.8336 93.6205 36.5287C93.682 39.7431 93.6555 42.9575 93.6672 46.172C93.6672 46.3643 93.6602 46.4756 93.408 46.4662C91.4267 46.3931 89.4447 46.3526 87.4643 46.2677C85.0967 46.1639 82.7301 46.0433 80.3646 45.9057C78.9057 45.8209 77.446 45.7236 75.9918 45.5764C74.1445 45.388 72.3011 45.1576 70.4709 44.8267C68.1355 44.4048 65.8483 43.8404 63.6475 42.9498C58.1203 40.7131 54.0567 36.9133 51.5383 31.502C49.6481 27.4398 48.9553 23.0809 48.4812 18.6762C48.3387 17.3528 48.2368 16.0239 48.1426 14.695C48.0258 13.0539 47.9316 11.4123 47.86 9.7702C47.7821 8.06217 47.6973 6.35415 47.6537 4.64457C47.6093 3.20824 47.5058 1.77269 47.54 0.333252Z" fill="white"/>
<path id="Vector_2" d="M0.333984 53.2952V47.5405C1.97969 47.5304 3.62227 47.6277 5.26642 47.6822C8.01082 47.7735 10.7534 47.9033 13.4942 48.0714C16.2048 48.2396 18.9077 48.4693 21.5981 48.8499C23.9989 49.1917 26.371 49.6596 28.6753 50.4233C35.2332 52.5969 39.9935 56.7735 42.7501 63.151C43.8844 65.7745 44.5235 68.5366 44.9852 71.3485C45.383 73.7728 45.6173 76.2141 45.815 78.6594C45.9403 80.2078 45.9941 81.7609 46.0781 83.3125C46.2603 86.6491 46.3693 89.9897 46.4674 93.3302C46.4752 93.6105 46.3989 93.6673 46.1311 93.6665C41.44 93.6564 36.7489 93.672 32.0593 93.5108C28.0712 93.3746 24.0924 93.1457 20.1486 92.4988C17.2573 92.0247 14.4283 91.338 11.7597 90.0924C9.35499 88.9698 7.24453 87.472 5.6829 85.2798C4.00451 82.9287 2.99482 80.288 2.2864 77.5173C1.52817 74.552 1.13037 71.5284 0.870357 68.4868C0.586991 65.1673 0.445309 61.8415 0.41417 58.5103C0.404309 56.8225 0.393667 55.1345 0.38225 53.4462C0.373429 53.3938 0.357177 53.343 0.333984 53.2952Z" fill="white"/>
<path id="Vector_3" d="M35.4075 0.333252H36.2639C36.3791 0.488951 36.5472 0.418105 36.6897 0.417326C37.6799 0.417326 38.6709 0.402534 39.6619 0.387743C39.8511 0.387743 40.0512 0.434457 40.2302 0.333252H46.4518C46.4868 1.72053 46.3942 3.10392 46.3452 4.48809C46.251 7.14121 46.1069 9.79199 45.9878 12.4436C45.9038 14.3182 45.7597 16.1897 45.5768 18.0557C45.3962 19.9047 45.1588 21.7482 44.8256 23.5784C44.4029 25.8983 43.8369 28.1778 42.9494 30.3669C41.517 33.9013 39.391 36.9382 36.4375 39.3757C33.1601 42.081 29.344 43.6107 25.2398 44.5052C21.9702 45.2175 18.6438 45.5702 15.3111 45.8146C12.6518 46.01 9.98867 46.1579 7.32238 46.2296C6.40378 46.2545 5.48595 46.3261 4.56657 46.3456C3.15597 46.3751 1.74692 46.488 0.333984 46.4514V38.8299C0.48968 38.1612 0.38069 37.4816 0.418836 36.8059C0.424813 36.7741 0.419637 36.7412 0.404173 36.7129C0.388709 36.6845 0.363912 36.6623 0.333984 36.6502V35.6381C0.476446 35.5003 0.405604 35.3267 0.411832 35.171C0.499022 30.3505 0.702983 25.5387 1.42385 20.7641C1.83645 18.0495 2.43588 15.38 3.45958 12.8235C4.3595 10.5829 5.53578 8.50747 7.31226 6.82903C9.36744 4.89213 11.8422 3.6839 14.4992 2.81743C18.1892 1.61465 22.0084 1.12031 25.8556 0.806575C28.9555 0.552785 32.0632 0.431341 35.174 0.399422C35.2534 0.404093 35.3593 0.455476 35.4075 0.333252Z" fill="white"/>
<path id="Vector_4" d="M57.006 93.6579C53.9473 93.6579 50.8879 93.654 47.8293 93.6649C47.5576 93.6649 47.5179 93.5739 47.5264 93.3349C47.6043 90.5766 47.6907 87.8184 47.8324 85.0625C47.9235 83.2907 47.9795 81.5157 48.1017 79.7462C48.231 77.8778 48.3929 76.0094 48.6155 74.141C48.9534 71.3213 49.4306 68.5358 50.2604 65.8111C51.3861 62.1187 53.2187 58.8303 55.9433 56.0799C58.1293 53.8666 60.7045 52.2115 63.5919 51.0508C65.7934 50.1656 68.0806 49.5887 70.4121 49.1645C72.2283 48.8336 74.0585 48.604 75.8918 48.414C77.3196 48.2653 78.7535 48.1688 80.1867 48.0855C82.5652 47.9469 84.9448 47.8254 87.3253 47.7211C89.3447 47.6355 91.3656 47.5942 93.3858 47.5242C93.6084 47.5164 93.666 47.5802 93.6645 47.7998C93.6481 51.0523 93.6762 54.3057 93.6131 57.559C93.5617 60.2285 93.5065 62.8979 93.3414 65.5627C93.0682 69.9714 92.6408 74.3598 91.403 78.6252C90.6821 81.1117 89.6756 83.4659 88.11 85.5538C86.4542 87.7616 84.2371 89.2182 81.7507 90.3135C79.2642 91.4089 76.6439 92.0449 73.9729 92.4824C69.0249 93.2921 64.0309 93.4944 59.0261 93.577C58.3527 93.5886 57.6793 93.577 57.0021 93.577L57.006 93.6579Z" fill="white"/>
</g>
</svg>
