<svg width="50" height="50" viewBox="0 0 50 50" fill="none" xmlns="http://www.w3.org/2000/svg">
<rect width="50" height="50" fill="black"/>
<rect width="50" height="50" fill="white" fill-opacity="0.1"/>
<path d="M25.1147 15H26.9646C26.9736 15.0053 26.9826 15.0152 26.9916 15.0153C27.1606 15.0163 27.3294 15.0162 27.4984 15.0163C28.5924 15.0317 29.6837 15.0742 30.768 15.2499C31.3597 15.346 31.9394 15.4873 32.4884 15.7347C32.998 15.9644 33.4527 16.2685 33.7962 16.7201C34.1397 17.1717 34.3571 17.6791 34.5135 18.2173C34.7804 19.1338 34.8714 20.077 34.9306 21.0246C34.9663 21.6013 34.9781 22.1786 34.9891 22.7562C35.0023 23.445 34.9966 24.1338 34.9991 24.8226C34.9991 24.8638 34.9976 24.8876 34.9436 24.8856C34.519 24.87 34.0943 24.8613 33.6699 24.8431C33.1626 24.8209 32.6555 24.795 32.1486 24.7655C31.836 24.7473 31.5232 24.7265 31.2116 24.695C30.8157 24.6546 30.4207 24.6052 30.0285 24.5343C29.528 24.4439 29.0379 24.323 28.5663 24.1321C27.382 23.6528 26.5112 22.8386 25.9715 21.679C25.5665 20.8085 25.418 19.8745 25.3164 18.9306C25.2859 18.647 25.264 18.3623 25.2439 18.0775C25.2188 17.7259 25.1987 17.3741 25.1833 17.0222C25.1666 16.6562 25.1484 16.2902 25.1391 15.9239C25.1296 15.6161 25.1074 15.3085 25.1147 15Z" fill="white"/>
<path d="M15 26.349V25.1159C15.3527 25.1137 15.7046 25.1346 16.057 25.1462C16.645 25.1658 17.2327 25.1936 17.82 25.2296C18.4009 25.2657 18.9801 25.3149 19.5566 25.3965C20.0711 25.4697 20.5794 25.57 21.0731 25.7336C22.4784 26.1994 23.4985 27.0944 24.0892 28.461C24.3322 29.0232 24.4692 29.615 24.5681 30.2176C24.6534 30.7371 24.7036 31.2602 24.7459 31.7842C24.7728 32.116 24.7843 32.4488 24.8023 32.7813C24.8414 33.4963 24.8647 34.2121 24.8857 34.928C24.8874 34.988 24.871 35.0002 24.8137 35C23.8084 34.9979 22.8032 35.0012 21.7983 34.9667C20.9437 34.9375 20.0911 34.8884 19.246 34.7498C18.6264 34.6482 18.0202 34.5011 17.4484 34.2341C16.9331 33.9936 16.4808 33.6726 16.1462 33.2029C15.7865 32.6991 15.5702 32.1332 15.4184 31.5395C15.2559 30.9041 15.1707 30.2561 15.1149 29.6044C15.0542 28.893 15.0239 28.1804 15.0172 27.4666C15.0151 27.1049 15.0128 26.7432 15.0103 26.3814C15.0085 26.3702 15.005 26.3593 15 26.349Z" fill="white"/>
<path d="M22.5158 15H22.6993C22.7239 15.0334 22.76 15.0182 22.7905 15.018C23.0027 15.018 23.2151 15.0148 23.4274 15.0117C23.468 15.0117 23.5108 15.0217 23.5492 15H24.8824C24.8899 15.2973 24.87 15.5937 24.8595 15.8903C24.8394 16.4588 24.8085 17.0269 24.783 17.5951C24.7649 17.9968 24.7341 18.3978 24.6949 18.7977C24.6562 19.1939 24.6053 19.5889 24.5339 19.9811C24.4433 20.4782 24.3221 20.9667 24.1319 21.4358C23.8249 22.1932 23.3694 22.8439 22.7365 23.3662C22.0342 23.9459 21.2164 24.2737 20.337 24.4654C19.6363 24.6181 18.9235 24.6936 18.2094 24.746C17.6395 24.7879 17.0689 24.8196 16.4975 24.8349C16.3007 24.8403 16.104 24.8556 15.907 24.8598C15.6047 24.8661 15.3028 24.8903 15 24.8825V23.2493C15.0334 23.106 15.01 22.9604 15.0182 22.8156C15.0195 22.8088 15.0184 22.8017 15.015 22.7956C15.0117 22.7896 15.0064 22.7848 15 22.7822V22.5653C15.0305 22.5358 15.0153 22.4986 15.0167 22.4652C15.0354 21.4323 15.0791 20.4012 15.2335 19.378C15.322 18.7963 15.4504 18.2243 15.6698 17.6765C15.8626 17.1964 16.1147 16.7516 16.4953 16.392C16.9357 15.9769 17.4661 15.718 18.0354 15.5323C18.8261 15.2746 19.6445 15.1687 20.4689 15.1014C21.1332 15.047 21.7991 15.021 22.4657 15.0142C22.4827 15.0152 22.5054 15.0262 22.5158 15Z" fill="white"/>
<path d="M27.1448 34.9982C26.4894 34.9982 25.8338 34.9974 25.1784 34.9997C25.1202 34.9997 25.1117 34.9802 25.1135 34.929C25.1302 34.338 25.1487 33.7469 25.1791 33.1564C25.1986 32.7767 25.2106 32.3963 25.2368 32.0172C25.2645 31.6168 25.2992 31.2164 25.3469 30.816C25.4193 30.2118 25.5215 29.6149 25.6994 29.0311C25.9406 28.2398 26.3333 27.5352 26.9171 26.9458C27.3855 26.4715 27.9374 26.1169 28.5561 25.8681C29.0279 25.6785 29.518 25.5548 30.0176 25.4639C30.4068 25.393 30.799 25.3438 31.1918 25.3031C31.4977 25.2713 31.805 25.2506 32.1121 25.2327C32.6218 25.203 33.1317 25.177 33.6418 25.1546C34.0746 25.1363 34.5076 25.1275 34.9405 25.1124C34.9882 25.1108 35.0006 25.1244 35.0002 25.1715C34.9967 25.8685 35.0027 26.5656 34.9892 27.2628C34.9782 27.8348 34.9664 28.4068 34.931 28.9778C34.8724 29.9226 34.7809 30.8629 34.5156 31.7769C34.3612 32.3098 34.1455 32.8142 33.81 33.2616C33.4552 33.7347 32.9801 34.0469 32.4473 34.2816C31.9145 34.5163 31.353 34.6526 30.7806 34.7463C29.7203 34.9198 28.6502 34.9632 27.5777 34.9809C27.4334 34.9834 27.2891 34.9809 27.144 34.9809L27.1448 34.9982Z" fill="white"/>
</svg>
