<svg width="50" height="50" viewBox="0 0 50 50" fill="none" xmlns="http://www.w3.org/2000/svg">
<rect width="50" height="50" fill="black"/>
<rect width="50" height="50" fill="white" fill-opacity="0.1"/>
<path d="M34.8939 29.0708C34.8697 29.0185 34.8471 28.9751 34.8262 28.9404C34.4792 28.3145 33.8161 27.5463 32.8372 26.6355L32.8166 26.6146L32.8062 26.6044L32.7957 26.5939H32.7852C32.341 26.1698 32.0597 25.8846 31.9419 25.7386C31.7263 25.4605 31.678 25.179 31.7959 24.8937C31.8791 24.6782 32.1917 24.2231 32.733 23.5277C33.0178 23.1592 33.2433 22.8638 33.4098 22.6413C34.6109 21.0421 35.1316 20.0203 34.9719 19.5752L34.9098 19.4713C34.8681 19.4086 34.7606 19.3514 34.5872 19.2991C34.4134 19.247 34.1914 19.2384 33.9206 19.2731L30.9216 19.2939C30.8731 19.2766 30.8037 19.2782 30.7133 19.2991C30.623 19.32 30.5779 19.3305 30.5779 19.3305L30.5257 19.3566L30.4843 19.388C30.4495 19.4088 30.4114 19.4452 30.3697 19.4974C30.3282 19.5494 30.2935 19.6104 30.2658 19.6799C29.9393 20.5212 29.5681 21.3033 29.1515 22.0263C28.8946 22.4575 28.6587 22.8311 28.4432 23.1475C28.2281 23.4637 28.0476 23.6967 27.9019 23.8461C27.756 23.9956 27.6244 24.1154 27.5061 24.2058C27.388 24.2964 27.2979 24.3346 27.2355 24.3206C27.173 24.3066 27.1141 24.2927 27.0583 24.2789C26.9612 24.2163 26.883 24.1311 26.8241 24.0234C26.765 23.9156 26.7252 23.78 26.7043 23.6166C26.6836 23.4531 26.6714 23.3125 26.6679 23.1942C26.6646 23.0761 26.6661 22.9091 26.6732 22.6936C26.6804 22.478 26.6836 22.3321 26.6836 22.2556C26.6836 21.9913 26.6888 21.7046 26.6991 21.3952C26.7096 21.0858 26.7181 20.8407 26.7252 20.6601C26.7323 20.4793 26.7356 20.288 26.7356 20.0864C26.7356 19.8848 26.7233 19.7267 26.6991 19.6119C26.6752 19.4973 26.6384 19.386 26.59 19.2781C26.5413 19.1704 26.4701 19.087 26.3766 19.0278C26.2829 18.9687 26.1664 18.9218 26.0277 18.887C25.6598 18.8036 25.1912 18.7585 24.6218 18.7515C23.3307 18.7376 22.501 18.8211 22.1331 19.0019C21.9873 19.0783 21.8554 19.1826 21.7374 19.3146C21.6125 19.4676 21.595 19.5511 21.6853 19.5649C22.1018 19.6274 22.3968 19.7769 22.5703 20.0132L22.6329 20.1385C22.6815 20.2289 22.7301 20.3889 22.7787 20.6182C22.8273 20.8476 22.8586 21.1014 22.8724 21.3794C22.907 21.887 22.907 22.3215 22.8724 22.683C22.8376 23.0446 22.8048 23.3261 22.7735 23.5278C22.7422 23.7294 22.6953 23.8928 22.6329 24.0179C22.5703 24.143 22.5287 24.2195 22.5079 24.2473C22.487 24.275 22.4697 24.2925 22.4559 24.2994C22.3656 24.334 22.2718 24.3517 22.1747 24.3517C22.0774 24.3517 21.9595 24.3029 21.8206 24.2056C21.6819 24.1082 21.5378 23.9744 21.3885 23.804C21.2393 23.6336 21.0709 23.3955 20.8834 23.0896C20.696 22.7838 20.5016 22.4223 20.3003 22.0051L20.1338 21.7026C20.0296 21.508 19.8874 21.2246 19.7069 20.8527C19.5263 20.4807 19.3666 20.1208 19.2278 19.7732C19.1724 19.6272 19.089 19.516 18.978 19.4395L18.9259 19.4082C18.8912 19.3804 18.8356 19.3509 18.7593 19.3195C18.6829 19.2881 18.6031 19.2656 18.5198 19.2518L15.6666 19.2725C15.375 19.2725 15.1772 19.3387 15.073 19.4708L15.0313 19.5333C15.0105 19.5681 15 19.6237 15 19.7002C15 19.7767 15.0208 19.8706 15.0625 19.9818C15.479 20.9622 15.932 21.9077 16.4214 22.8184C16.9108 23.7292 17.336 24.4629 17.6969 25.0187C18.0579 25.575 18.4258 26.1 18.8007 26.5935C19.1756 27.0872 19.4238 27.4035 19.5452 27.5425C19.6668 27.6818 19.7622 27.7859 19.8317 27.8554L20.092 28.1056C20.2586 28.2725 20.5033 28.4724 20.8261 28.7052C21.149 28.9383 21.5065 29.1676 21.8987 29.3938C22.291 29.6196 22.7474 29.8038 23.2681 29.9463C23.7887 30.0889 24.2955 30.1462 24.7884 30.1186H25.9859C26.2288 30.0976 26.4128 30.0211 26.5379 29.8891L26.5793 29.8368C26.6072 29.7953 26.6333 29.7308 26.6573 29.6441C26.6817 29.5572 26.6938 29.4614 26.6938 29.3573C26.6867 29.0584 26.7094 28.789 26.7613 28.5492C26.8132 28.3094 26.8724 28.1286 26.9386 28.0069C27.0047 27.8852 27.0793 27.7826 27.1624 27.6994C27.2456 27.616 27.3049 27.5655 27.3397 27.5481C27.3743 27.5306 27.4019 27.5187 27.4227 27.5116C27.5893 27.456 27.7854 27.5099 28.0112 27.6734C28.2369 27.8368 28.4485 28.0385 28.6465 28.2783C28.8444 28.5183 29.0821 28.7875 29.3597 29.0864C29.6375 29.3854 29.8804 29.6077 30.0886 29.7539L30.2968 29.8791C30.4358 29.9626 30.6163 30.039 30.8385 30.1086C31.0603 30.178 31.2546 30.1954 31.4215 30.1607L34.0872 30.119C34.3508 30.119 34.556 30.0753 34.7015 29.9886C34.8473 29.9017 34.9339 29.8059 34.9619 29.7018C34.9897 29.5975 34.9912 29.4793 34.9672 29.347C34.9425 29.2151 34.9181 29.1229 34.8939 29.0708Z" fill="white"/>
</svg>
